Coordinates
version=1
nRows=29
nColumns=22
inDegrees=yes

Units are S.I. units (second, meters, Newtons, ...)
If the header above contains a line with 'inDegrees', this indicates whether rotational values are in degrees (yes) or radians (no).

endheader
time	pelvis_tilt	pelvis_list	pelvis_rotation	pelvis_tx	pelvis_ty	pelvis_tz	hip_flexion_r	hip_adduction_r	hip_rotation_r	knee_angle_r	ankle_angle_r	subtalar_angle_r	hip_flexion_l	hip_adduction_l	hip_rotation_l	knee_angle_l	ankle_angle_l	subtalar_angle_l	lumbar_extension	lumbar_bending	lumbar_rotation
      4.19000000	      0.46527833	      0.58972242	      9.99335954	      0.76972351	      0.97038179	     -0.05418009	     27.44029242	     -5.31396444	    -13.59811485	    -15.27087116	      0.15894583	     11.55824682	    -17.37259709	     -0.19905782	      0.90071977	    -23.33042398	      7.32497017	      6.40478285	     -1.00158245	     -1.87303930	     -9.66400053
      4.20000000	      0.36985246	      0.15934129	     10.14398211	      0.78340876	      0.97085942	     -0.05342103	     27.55501041	     -4.93469341	    -13.82155304	    -16.47616325	     -0.88328210	     10.64704581	    -16.96515786	     -0.86725503	      0.33329022	    -24.79388373	      5.41306675	      6.70273129	     -0.47973120	     -1.31895490	     -9.54864871
      4.21000000	      0.26437610	     -0.31363799	     10.20058381	      0.79685572	      0.97156077	     -0.05244162	     27.68529221	     -4.46644330	    -13.92802315	    -17.66248445	     -1.83540628	      9.90229293	    -16.34660325	     -1.57946716	     -0.44675267	    -26.53132394	      3.42011042	      6.89911872	      0.03695079	     -0.73358498	     -9.34040155
      4.22000000	      0.18536490	     -0.80175714	     10.16339379	      0.81000498	      0.97252251	     -0.05122192	     27.76001317	     -3.91463411	    -13.91479622	    -18.77258012	     -2.63680490	      9.18040155	    -15.56263078	     -2.32436908	     -1.39898957	    -28.54083780	      1.38954902	      7.02241855	      0.49146428	     -0.14156652	     -9.03669590
      4.23000000	      0.15589591	     -1.29720848	     10.04912046	      0.82281596	      0.97376053	     -0.04975355	     27.73914534	     -3.27730332	    -13.78713839	    -19.78048889	     -3.27442156	      8.36145831	    -14.65766834	     -3.11018097	     -2.45586982	    -30.79070111	     -0.61218456	      7.06581097	      0.84960215	      0.45140738	     -8.70022434
      4.24000000	      0.18982768	     -1.80633418	      9.86514265	      0.83525294	      0.97524766	     -0.04804354	     27.59048497	     -2.54831881	    -13.60165805	    -20.64926545	     -3.72238228	      7.56379226	    -13.65320352	     -3.95711140	     -3.59111289	    -33.27935943	     -2.43522944	      7.05198718	      1.08871950	      1.05068821	     -8.28699815
      4.25000000	      0.28722432	     -2.29759054	      9.66031901	      0.84729157	      0.97699533	     -0.04614542	     27.28026009	     -1.76497164	    -13.35778392	    -21.32838443	     -3.99782026	      6.57761095	    -12.57555957	     -4.82780874	     -4.64649115	    -35.95084489	     -4.07149322	      6.92601795	      1.20269097	      1.61613116	     -7.88485773
      4.26000000	      0.44326414	     -2.76693807	      9.43877939	      0.85892893	      0.97894542	     -0.04411511	     26.82809502	     -0.95051563	    -13.10119557	    -21.84363457	     -4.13544775	      5.60003819	    -11.44618334	     -5.70896708	     -5.60393409	    -38.75383357	     -5.37092807	      6.72263710	      1.19435812	      2.14547474	     -7.46317487
      4.27000000	      0.63919278	     -3.19738132	      9.23645323	      0.87017687	      0.98106076	     -0.04201760	     26.24455970	     -0.14046998	    -12.83725932	    -22.18575421	     -4.16406269	      4.58641244	    -10.26926048	     -6.56044034	     -6.36739503	    -41.61524634	     -6.30210457	      6.40843912	      1.08781254	      2.61230013	     -7.07400509
      4.28000000	      0.85770212	     -3.56785073	      9.07301705	      0.88104809	      0.98330174	     -0.03994023	     25.55547328	      0.61968450	    -12.58741767	    -22.37437355	     -4.11118629	      3.60143853	     -9.05189836	     -7.33243174	     -6.89510610	    -44.45450751	     -6.83294096	      5.98599739	      0.90660437	      2.99468346	     -6.72914622
      4.29000000	      1.08014749	     -3.87299647	      8.96162609	      0.89156890	      0.98561830	     -0.03796336	     24.79883815	      1.29890424	    -12.38725295	    -22.44748827	     -3.99536063	      2.69807197	     -7.79582201	     -7.99579147	     -7.18667807	    -47.19601088	     -6.94942154	      5.46032593	      0.68151017	      3.28815735	     -6.43131364
      4.30000000	      1.29193541	     -4.10608561	      8.91032743	      0.90174945	      0.98797921	     -0.03612399	     24.00245449	      1.87712876	    -12.23611221	    -22.42748862	     -3.83479160	      1.91174905	     -6.50494218	     -8.52507619	     -7.25358623	    -49.77108980	     -6.67430719	      4.84504903	      0.43566817	      3.48434252	     -6.20153099
      4.31000000	      1.47679553	     -4.28248739	      8.91978529	      0.91161223	      0.99035758	     -0.03447275	     23.18896345	      2.36286738	    -12.11707205	    -22.31558008	     -3.66265640	      1.32690196	     -5.17827071	     -8.91735826	     -7.11541212	    -52.12679749	     -6.06555129	      4.23137696	      0.19924230	      3.60456471	     -6.03123865
      4.32000000	      1.64269468	     -4.37272210	      8.96918560	      0.92118647	      0.99274683	     -0.03301795	     22.37565675	      2.72456520	    -12.04051797	    -22.17324684	     -3.45264138	      0.81458052	     -3.85769368	     -9.14245917	     -6.85147856	    -54.20818203	     -5.21894904	      3.56550682	     -0.03504064	      3.62230499	     -5.90573579
      4.33000000	      1.78641302	     -4.39398057	      9.04371014	      0.93048422	      0.99512545	     -0.03174481	     21.57275294	      2.98604405	    -11.98396640	    -22.00365018	     -3.23368120	      0.43265312	     -2.55341821	     -9.22143872	     -6.50972252	    -55.99579155	     -4.22741499	      2.96566216	     -0.25731106	      3.56044710	     -5.81860890
      4.34000000	      1.90546115	     -4.34427197	      9.12070457	      0.93956101	      0.99749220	     -0.03063795	     20.77718874	      3.15454807	    -11.93344563	    -21.80020831	     -3.00630856	      0.13267681	     -1.29049777	     -9.15265700	     -6.13559900	    -57.46093288	     -3.17857117	      2.45136801	     -0.45469784	      3.41729581	     -5.72927781
      4.35000000	      2.01381704	     -4.24453007	      9.19174077	      0.94840416	      0.99981867	     -0.02966279	     19.99334899	      3.25581262	    -11.89261723	    -21.58985357	     -2.76636041	     -0.07715801	     -0.08396095	     -8.97981373	     -5.77367801	    -58.61663321	     -2.13155096	      2.09158644	     -0.64371164	      3.22052239	     -5.65021856
      4.36000000	      2.10517168	     -4.10481337	      9.24051998	      0.95704577	      1.00208240	     -0.02878612	     19.22425612	      3.30672251	    -11.85538494	    -21.36227297	     -2.52817416	     -0.24312707	      1.06023132	     -8.72352941	     -5.45390417	    -59.46167046	     -1.12349285	      1.85380285	     -0.81168872	      2.98106125	     -5.55340125
      4.37000000	      2.20712394	     -3.94205408	      9.24600266	      0.96548741	      1.00428931	     -0.02794392	     18.44869846	      3.33798968	    -11.80408545	    -21.12499862	     -2.28760067	     -0.33557929	      2.10761579	     -8.42504266	     -5.21587524	    -60.00622062	     -0.15637646	      1.72934856	     -0.99021714	      2.72049683	     -5.41130963
      4.38000000	      2.28720232	     -3.78181118	      9.23405123	      0.97371520	      1.00636007	     -0.02714244	     17.70469617	      3.36342562	    -11.77192670	    -20.87536454	     -2.04690158	     -0.42103626	      3.11333778	     -8.11814345	     -5.03245974	    -60.28078708	      0.75037205	      1.65548685	     -1.13939844	      2.46092405	     -5.26849086
      4.39000000	      2.35674103	     -3.63019365	      9.19137567	      0.98174066	      1.00829153	     -0.02633854	     16.98234682	      3.39714907	    -11.74186407	    -20.61564764	     -1.80205550	     -0.49507478	      4.06026696	     -7.82880196	     -4.93293975	    -60.29375852	      1.61777471	      1.61741594	     -1.27242326	      2.20868724	     -5.09707305
      4.40000000	      2.42413265	     -3.49732639	      9.11009537	      0.98956780	      1.01007938	     -0.02548440	     16.27572685	      3.45598554	    -11.69495385	    -20.34794218	     -1.55004944	     -0.55059447	      4.93940025	     -7.58559159	     -4.93450279	    -60.05778572	      2.46285119	      1.59087530	     -1.40028505	      1.97256243	     -4.88694088
      4.41000000	      2.47772318	     -3.39760516	      9.00976160	      0.99717027	      1.01169263	     -0.02459056	     15.59783761	      3.55057916	    -11.61732139	    -20.06693316	     -1.30059882	     -0.57637094	      5.77766323	     -7.41149729	     -5.02085589	    -59.59627618	      3.29605927	      1.52497628	     -1.51305818	      1.76705696	     -4.66215106
      4.42000000	      2.54943363	     -3.33077776	      8.84700076	      1.00462346	      1.01318278	     -0.02355553	     14.92188593	      3.69529485	    -11.50502026	    -19.79359091	     -1.02182330	     -0.56494208	      6.51197749	     -7.33445866	     -5.25728773	    -58.89249561	      4.11789082	      1.42373640	     -1.64168543	      1.58688673	     -4.33930521
      4.43000000	      2.61297427	     -3.29582824	      8.68270150	      1.01187591	      1.01451975	     -0.02249603	     14.25661502	      3.87680375	    -11.32746317	    -19.49126919	     -0.74632237	     -0.51528618	      7.19807476	     -7.33430346	     -5.56532044	    -57.98029203	      4.90495730	      1.24932604	     -1.75968971	      1.43293459	     -4.01363590
      4.44000000	      2.65137364	     -3.28996024	      8.51481127	      1.01896247	      1.01567474	     -0.02142076	     13.64132608	      4.07723586	    -11.16102122	    -19.20762823	     -0.45322973	     -0.47484030	      7.84182511	     -7.40588186	     -5.94869451	    -56.85690589	      5.69431118	      1.04086176	     -1.84131971	      1.30049607	     -3.67400514
      4.45000000	      2.67979641	     -3.29915946	      8.33938417	      1.02589537	      1.01669384	     -0.02033543	     13.04984972	      4.28939997	    -10.98000438	    -18.92785243	     -0.15515248	     -0.45271197	      8.41825643	     -7.53143233	     -6.40707854	    -55.52447682	      6.47465498	      0.80969916	     -1.90380370	      1.17570177	     -3.32685254
      4.46000000	      2.70190470	     -3.30978980	      8.17975270	      1.03268285	      1.01761473	     -0.01932339	     12.47049440	      4.49456115	    -10.78137404	    -18.64573516	      0.13603178	     -0.45767972	      8.91711352	     -7.66802277	     -6.88223679	    -53.97962638	      7.24508909	      0.56395425	     -1.94958949	      1.04984829	     -2.98103697
      4.47000000	      2.72175141	     -3.30882689	      8.02641057	      1.03932039	      1.01845590	     -0.01839895	     11.90996349	      4.67479545	    -10.59622058	    -18.38279518	      0.41631739	     -0.49445693	      9.32640038	     -7.79293125	     -7.37868451	    -52.22739741	      8.01363297	      0.32765622	     -1.98586753	      0.91484914	     -2.65841398
